<svg xmlns="http://www.w3.org/2000/svg" viewBox="0 0 562.16 562.16"><defs><style>.cls-1{fill:#0071bc;}.cls-2,.cls-3{fill:#fff;}.cls-3{font-size:40px;font-family:MyriadPro-Regular, Myriad Pro;letter-spacing:0.02em;}.cls-4{letter-spacing:0.01em;}.cls-5{letter-spacing:-0.03em;}.cls-6{letter-spacing:-0.05em;}.cls-7{letter-spacing:0.01em;}.cls-8{letter-spacing:-0.01em;}</style></defs><title>Asset 1logo</title><g id="Layer_2" data-name="Layer 2"><g id="Layer_1-2" data-name="Layer 1"><polygon class="cls-1" points="274.85 541.52 259.49 527.78 263.72 507.27 248.29 493.16 243.24 471.1 230 489.38 210.32 496.44 206.39 517 186.97 523.93 174.1 539.29 175.74 519.35 166.87 500.74 178.65 483.43 169.78 464.49 173.48 442.19 154.27 454.06 133.38 453.06 121.87 470.55 101.28 469.48 83.49 478.67 92.68 460.87 91.61 440.29 109.1 428.77 108.1 407.89 119.97 388.68 97.67 392.38 78.73 383.51 61.42 395.29 42.81 386.42 22.87 388.06 38.23 375.18 45.16 355.77 65.72 351.84 72.78 332.16 91.06 318.92 69 313.87 54.89 298.44 34.38 302.67 20.63 287.31 1.61 281.08 20.64 274.85 34.38 259.49 54.89 263.72 69 248.29 91.06 243.24 72.78 230 65.72 210.32 45.16 206.39 38.23 186.97 22.87 174.1 42.81 175.74 61.42 166.87 78.73 178.65 97.67 169.78 119.97 173.48 108.1 154.27 109.1 133.38 91.61 121.87 92.68 101.28 83.49 83.49 101.29 92.68 121.87 91.61 133.38 109.1 154.27 108.1 173.48 119.97 169.78 97.67 178.65 78.73 166.87 61.42 175.74 42.81 174.1 22.87 186.98 38.23 206.39 45.16 210.32 65.72 230 72.78 243.24 91.06 248.29 69 263.72 54.89 259.49 34.38 274.85 20.63 281.08 1.61 287.31 20.64 302.67 34.38 298.44 54.89 313.87 69 318.92 91.06 332.16 72.78 351.84 65.72 355.77 45.16 375.19 38.23 388.06 22.87 386.42 42.81 395.29 61.42 383.52 78.73 392.38 97.67 388.68 119.97 407.89 108.1 428.78 109.1 440.29 91.61 460.88 92.68 478.67 83.49 469.48 101.29 470.55 121.87 453.06 133.38 454.06 154.27 442.19 173.48 464.49 169.78 483.43 178.65 500.74 166.87 519.35 175.74 539.29 174.1 523.93 186.98 517 206.39 496.44 210.32 489.38 230 471.1 243.24 493.16 248.29 507.27 263.72 527.78 259.49 541.53 274.85 560.55 281.08 541.52 287.31 527.78 302.67 507.27 298.44 493.16 313.87 471.1 318.92 489.38 332.16 496.44 351.84 517 355.77 523.93 375.19 539.29 388.06 519.35 386.42 500.74 395.29 483.43 383.52 464.49 392.38 442.19 388.68 454.06 407.89 453.06 428.78 470.55 440.29 469.48 460.88 478.67 478.67 460.87 469.48 440.29 470.55 428.77 453.06 407.89 454.06 388.68 442.19 392.38 464.49 383.51 483.43 395.29 500.74 386.42 519.35 388.06 539.29 375.18 523.93 355.77 517 351.84 496.44 332.16 489.38 318.92 471.1 313.87 493.16 298.44 507.27 302.67 527.78 287.31 541.53 281.08 560.55 274.85 541.52"/><path d="M281.08,3.21l5.72,17.45.08.26.2.18,15,13.46L298,54.51l-.12.55.42.39,15.11,13.82,4.77,20.82.49,2.15L320,90.46,332.48,73.2l19.26-6.91.54-.19.11-.56,3.82-20,19-6.78.25-.1.18-.2L387.43,24.4l-1.5,18.24,0,.27.11.24,8.69,18.22L383.26,78.22l-.32.47.24.51,8.68,18.54-3.5,21.06L388,121l1.88-1.15L408,108.6l20.44,1,.57,0,.31-.48,11.2-17,20.17,1,.27,0,.24-.13,16.28-8.4-8.41,16.28-.13.24,0,.27L470,121.61l-17,11.2-.48.31,0,.57,1,20.45-11.21,18.15-1.15,1.87,2.17-.36,21.06-3.5L483,179l.51.24.47-.32,16.85-11.45L519,176.14l.24.11.27,0,18.23-1.5-14,11.78-.21.17-.09.26-6.78,19-20,3.82-.56.11-.19.54L489,229.68,471.7,242.19l-1.78,1.29,2.15.49,20.83,4.78,13.81,15.1.39.42.55-.12,20-4.11,13.47,15,.18.2.25.09L559,281.08,541.5,286.8l-.26.08-.18.2-13.46,15-20-4.11-.55-.12-.39.42-13.82,15.11-20.82,4.77-2.15.49L471.7,320,489,332.48l6.91,19.26.19.54.56.11,20,3.82,6.78,19,.1.25.2.18,14,11.77-18.24-1.5-.27,0L519,386l-18.22,8.69-16.85-11.45-.47-.32-.51.24-18.54,8.68-21.06-3.5-2.17-.36,1.15,1.88L453.56,408l-1,20.44,0,.57.48.31,17,11.2L469,460.72l0,.27.13.24,8.4,16.28-16.28-8.41L461,469l-.27,0L440.55,470l-11.2-17-.31-.48-.57,0-20.45,1-18.15-11.21L388,441.19l.36,2.17,3.5,21.06L383.18,483l-.24.51.32.47,11.45,16.85L386,519l-.11.24,0,.27,1.5,18.23-11.78-14-.17-.21-.26-.09-19-6.78-3.82-20-.11-.56-.54-.19L332.48,489,320,471.7l-1.29-1.78-.49,2.15-4.78,20.83-15.1,13.81-.42.39.12.55,4.11,20-15,13.47-.2.18-.09.25L281.08,559l-5.72-17.45-.08-.26-.2-.18L260,527.6l4.11-20,.12-.55-.42-.39-15.11-13.82L244,472.07l-.49-2.15-1.29,1.78L229.68,489l-19.26,6.91-.54.19-.11.56-3.82,20-19,6.78-.25.1-.18.2-11.77,14,1.5-18.24,0-.27-.11-.24-8.69-18.22,11.45-16.85.32-.47L179,483l-8.68-18.54,3.5-21.06.36-2.17-1.88,1.15-18.15,11.22-20.44-1-.57,0-.31.48-11.2,17L101.44,469l-.27,0-.24.13-16.28,8.4,8.41-16.28.13-.24,0-.27-1-20.16,17-11.2.48-.31,0-.57-1-20.45,11.21-18.15L121,388l-2.17.36-21.06,3.5L79.2,383.18l-.51-.24-.47.32L61.37,394.71,43.14,386l-.24-.11-.27,0-18.23,1.5,14.05-11.78.21-.17.09-.26,6.78-19,20-3.82.56-.11.19-.54,6.91-19.26L90.46,320l1.78-1.29-2.15-.49-20.83-4.78-13.81-15.1-.39-.42-.55.12-19.95,4.11-13.47-15-.18-.2-.25-.09L3.21,281.08l17.45-5.72.26-.08.18-.2,13.46-15,19.95,4.11.55.12.39-.42,13.82-15.11L90.09,244l2.15-.49-1.78-1.29L73.2,229.68l-6.91-19.26-.19-.54-.56-.11-20-3.82-6.78-19-.1-.25-.2-.18L24.4,174.73l18.24,1.5.27,0,.24-.11,18.22-8.69L78.22,178.9l.47.32.51-.24,18.54-8.68,21.06,3.5,2.17.36-1.15-1.88L108.6,154.13l1-20.44,0-.57-.48-.31-17-11.2,1-20.17,0-.27-.13-.24-8.4-16.28,16.28,8.41.24.13.27,0,20.16-1,11.2,17,.31.48.57,0,20.45-1,18.15,11.21,1.87,1.15-.36-2.17-3.5-21.06L179,79.2l.24-.51-.32-.47L167.45,61.37l8.69-18.23.11-.24,0-.27-1.5-18.23,11.78,14.05.17.21.26.09,19,6.78,3.82,20,.11.56.54.19,19.26,6.91,12.51,17.26,1.29,1.78.49-2.15,4.78-20.83,15.1-13.81.42-.39-.12-.55L260,34.56l15-13.47.2-.18.09-.25,5.71-17.45m0-3.21-6.66,20.35L259,34.2l4.22,20.51-15.33,14L243,89.87,230.31,72.36l-19.55-7-3.93-20.57-19.56-7L173.48,21.34l1.75,21.37L166.3,61.46l11.77,17.32L169.26,97.6,172.81,119,154.4,107.59l-20.76,1L122.13,91.09,101.4,92.18,82.33,82.33l9.84,19.06-1.08,20.74,17.49,11.51-1,20.76L119,172.81,97.6,169.26l-18.82,8.81L61.46,166.3l-18.74,8.93-21.38-1.75L37.8,187.27l7,19.56,20.57,3.93,7,19.55L89.87,243l-21.13,4.84-14,15.33L34.2,259,20.35,274.41,0,281.08l20.35,6.66L34.2,303.21,54.71,299l14,15.33,21.13,4.84L72.36,331.85l-7,19.55-20.57,3.93-7,19.56L21.34,388.68l21.37-1.75,18.75,8.93,17.32-11.77L97.6,392.9,119,389.35l-11.37,18.41,1,20.76L91.09,440l1.09,20.73-9.85,19.07L101.39,470l20.74,1.08,11.51-17.49,20.76,1,18.41-11.38-3.55,21.37,8.81,18.82L166.3,500.7l8.93,18.74-1.75,21.38,13.79-16.46,19.56-7,3.93-20.57,19.55-7L243,472.29l4.84,21.13,15.33,14L259,528l15.46,13.85,6.67,20.35,6.66-20.35L303.21,528,299,507.45l15.33-14,4.84-21.13,12.69,17.51,19.55,7,3.93,20.57,19.56,7,13.79,16.47-1.75-21.37,8.93-18.75-11.77-17.32,8.81-18.82-3.55-21.36,18.41,11.37,20.76-1L440,471.07,460.76,470l19.07,9.85L470,460.77,471.07,440l-17.49-11.51,1-20.76-11.38-18.41,21.37,3.55,18.82-8.81,17.32,11.77,18.74-8.93,21.38,1.75-16.46-13.79-7-19.56-20.57-3.93-7-19.55-17.51-12.69,21.13-4.84,14-15.33L528,303.21l13.85-15.46,20.35-6.67-20.35-6.66L528,259l-20.51,4.22-14-15.33L472.29,243l17.51-12.69,7-19.55,20.57-3.93,7-19.56,16.47-13.79-21.37,1.75L500.7,166.3l-17.32,11.77-18.82-8.81-21.36,3.55,11.37-18.41-1-20.76,17.49-11.51L470,101.4l9.85-19.07-19.06,9.84L440,91.09l-11.51,17.49-20.76-1L389.35,119,392.9,97.6l-8.81-18.82,11.77-17.32-8.93-18.74,1.75-21.38L374.89,37.8l-19.56,7L351.4,65.35l-19.55,7L319.16,89.87l-4.84-21.13L299,54.71l4.22-20.51L287.75,20.35,281.08,0Z"/><path class="cls-2" d="M281.08,106.08h-9.71l-2.28.14.13,2c3.92-.27,7.91-.4,11.86-.4v-2Zm-23.93,1.62q-5.25.72-10.4,1.75h0l-.19,0h-.08l-.18,0h-.52l-.06,0h0l-.07,0h0l-.07,0h0l-.08,0h-.09l.4,2c3.85-.8,7.79-1.47,11.69-2l-.27-2Zm-23.48,4.88h-.06l-.05,0h0l-.09,0h-.1l-.1,0h-.09l0,0h0l-.11,0h-.09l-.17,0h0l-.18.05h0l-.06,0h0l-.18.06h0q-2.74.8-5.46,1.68h0l-.19.06h0l-.25.09h0l-.19.06h0l-.06,0h0l-.17.06h0l-.06,0h0l-.1,0h0l-.05,0h0l-.16.06h-.1l-.09,0h-.07l0,0h0l-.06,0,0,0H225l-.05,0h0l-.06,0h0l-.05,0h0l-.07,0h0l0,0h0l-.07,0h0l-.07,0h0l-.06,0h0l-.08,0h0l-.07,0h0l-.16.06h0l-.08,0h0l-.08,0h0l-.08,0h0l-.17.06h0l-1.23.44.67,1.88c3.71-1.32,7.51-2.53,11.3-3.6l-.54-1.92Zm-22.58,8.06q-3,1.32-6,2.74h0l-.17.08h0l-.07,0h0l-.08,0h0l-.07,0h0l-.16.07h0l-.07,0h0l-.08,0h0l-.06,0h0l-.08,0h0l-.06,0h0l-.06,0h0l-.07,0,0,0,0,0h0l-.06,0h0l-.05,0,0,0,0,0,0,0-.05,0h0l0,0,0,0-.06,0,0,0,0,0,0,0h0l-.06,0h0l0,0,0,0-.09,0h0l0,0h0l0,0h0l-.09,0h0l0,0h0l-.1.05h0l-.05,0h0l-.16.08h0l0,0h0l-.12,0h0l-.06,0h0l-.16.08h0l-.17.08h0l0,0h0l-.17.08h0l-.17.08h0l-.23.12h0l-.17.09h0l-.17.09h0l0,0h0l-.17.09h0l-.17.09h0l0,0,.93,1.77c3.49-1.82,7.09-3.54,10.7-5.12l-.8-1.83Zm-21.27,11.09c-1,.63-2,1.27-3.06,1.92h0l-.22.14h0l-.16.11h0l-.15.1h0l0,0h0l-.09.06h0l0,0h0l-.08.05h0l0,0,0,0,0,0,0,0-.07,0,0,0,0,0,0,0-.06,0,0,0,0,0,0,0,0,0,0,0,0,0,0,0,0,0-.05,0,0,0,0,0,0,0,0,0,0,0,0,0,0,0-.05,0,0,0-.06,0h0l0,0,0,0-.06,0,0,0-.05,0,0,0,0,0h0l-.06,0,0,0,0,0,0,0-.07,0h0l-.06,0h0l-.06,0h0l-.06,0,0,0-.06,0h0l-.07,0h0l-.06,0h0l-.07.05h0l-.06,0,0,0-.14.09h0l-.06,0h0l-.07.05h0l-.07.05h0l-.07.05h0l-.07,0h0l-.15.1h0l-.07,0h0l-.08.05h0l-.07.05h0l-.15.1h0l-.15.1h0l-.07,0h0l-.08.05h0l-.07,0h0l-.15.11h0l-.15.1h0l-2,1.4L181,140c3.21-2.28,6.54-4.48,9.9-6.54l-1.05-1.7Zm-19.55,13.89q-4.64,3.81-9,7.92l1.37,1.45c2.87-2.69,5.87-5.33,8.91-7.82l-1.27-1.55ZM152.8,162.05c-.14.14-.28.29-.41.44h0l-.13.13h0l0,.05h0l-.12.14h0L152,163h0l-.13.14h0l0,0h0l-.08.08h0l0,0,0,0-.06.06,0,0,0,0,0,0,0,0,0,0-.05.06,0,0,0,0,0,0,0,0,0,0,0,0,0,0,0,0-.05.05,0,0,0,0,0,0-.05,0,0,0,0,0,0,0,0,.05h0l-.05.06,0,0,0,0,0,0-.05,0,0,0,0,.05,0,0-.05.06h0l-.05.06v0l-.12.13h0l-.06.07h0l-.06.07h0l-.07.07h0l-.12.14h0q-2.61,3-5.09,6h0l1.56,1.26c2.47-3.06,5.09-6.08,7.76-9l-1.46-1.36Zm-15.08,18.64q-3.45,4.91-6.55,10.05l1.71,1c2-3.37,4.21-6.71,6.48-9.94l-1.64-1.15Zm-12.4,20.53-.9,1.79h0l-.09.17h0l0,.05h0l0,.1v0l0,0v0l0,.07,0,0,0,.05,0,0,0,0,0,.05,0,0,0,0,0,0,0,0,0,0,0,.05v0l0,0v0l0,.07,0,0,0,.05v0l0,.08h0l0,.07v0l0,.06v0l0,.07v0l0,.06v0l0,.08h0l0,.07v0l0,.07h0l0,.07v0l0,.07h0l0,.08h0l0,.07v0l-.08.16h0l0,.07h0l0,.08h0l0,.07h0l-.08.16h0l0,.07h0l0,.08h0l0,.07h0l-.07.16v0l0,.07h0l0,.08v0l0,.06v0l0,.07v0l0,.06v0l0,.07h0l0,.07v0l0,.06v0l0,.08v0l0,.05v0l0,.07h0l0,.06v0l0,.05v0l0,.07v0l0,0,0,0,0,.07v0l0,.05,0,0,0,0v0l0,.06,0,0,0,0v0l0,.06,0,0,0,0v0l0,0,0,.07,0,0v0l0,0,0,.11h0l0,0v0l0,0v0l0,.08v0l0,.05v0l-.07.16v0l0,.05h0l0,.1v0l0,.05h0l0,.11h0l0,.06h0l-.07.17h0l0,.06h0l-.08.17v0l-.08.17h0l-.08.18h0l0,.06h0l-.08.17h0l-.08.18h0l-.1.24h0l-.07.18h0l-.1.24h0l-.08.18h0l-.11.25h0l-.07.17h0l-.07.18h0v0l1.84.78c1.55-3.61,3.25-7.22,5-10.73l-1.78-.91Zm-9.46,22q-.92,2.6-1.74,5.23h0l-.06.17h0l0,.09h0l0,.16v0l0,.08h0l0,.09h0l0,.07v0l0,.08h0l0,.08v0l0,.06v0l0,.08v0l0,0v0l0,.06v.13l0,0v0l0,.07v.08l0,0v0l0,.07v.11l0,.16v.1l0,.1v0l0,.05v.07h0l0,.12v0l0,.05v0l-.06.17v0l0,.18h0v.07h0l0,.19h0c-.05.15-.09.29-.13.44h0c0,.08,0,.16-.08.25h0l0,.18h0l0,.19h0l0,.06h0l0,.18v.09l0,.11h0l0,0v0l-.05.17v.1l0,.08v.16l0,.06V234l0,0v.08l0,.08v.11l0,.07v0l0,.07v0l0,.08h0l0,.09h0l0,.08h0l1.93.53c1-3.8,2.23-7.61,3.53-11.32l-1.89-.66Zm-6.34,23.12q-1.18,5.85-2,11.84l2,.26c.51-3.91,1.16-7.85,1.94-11.7l-2-.4Zm-3.1,23.78c-.13,2.11-.23,4.21-.28,6.33h0c0,.12,0,.23,0,.35h0v.06h0v.27h0v.06h0v.06h0v.27h0v.14h0V278h0v3.11h0v.78h0v.3h2v-1.07c0-3.59.11-7.22.33-10.79l-2-.13ZM108.56,294l-2,.15.06.84h0v.09h0v.09h0v.17h0v.77h0v.4h0v.06h0c.28,3.18.64,6.32,1.09,9.45l2-.29c-.56-3.89-1-7.86-1.27-11.79Zm3.35,23.47-2,.42c0,.11,0,.21.07.32h0l0,.25v0l0,.18v.09l0,.1V319l0,.09v.11l0,.07v.22l0,.05v.17l0,.07v.39l0,.07v.2l0,.07v0l0,.06v0l0,.08v0l0,.06v.3l0,.07v0l0,.08v0l0,.06v0l0,.08v.18h0l0,.08v0l0,.06v0l0,.08h0l0,.07v.11l0,.08v0l0,.06v0l0,.07h0l0,.08v.11l0,.08h0l0,.07v0l0,.07h0l0,.08V323l0,.08h0l0,.08v.11l0,.08v0l0,.06v0l0,.07v0l0,.08v.1l0,.08v0l0,.07V324h0l0,.08v0l0,.06v0l0,.08h0l0,.08v0l0,.06v0l0,.08v.11l0,.07h0l0,.08v.1l0,.08v0l0,.07v.1l0,.08v.11l0,.16v.11l0,.08h0l0,.07v0l0,.08h0l0,.09h0v.09l0,.08h0l0,.08v0l0,.07h0l0,.08h0l0,.08h0l0,.17h0l0,.08h0l0,.17h0c.23.84.46,1.68.7,2.52l1.92-.56c-1.08-3.78-2.05-7.65-2.88-11.5Zm6.55,22.78-1.88.69,0,.05h0l0,.06h0l.07.17v0l0,.05h0l0,.12h0l0,.06h0l.07.18h0l.09.25h0l.07.19h0l.33.87h0l.07.18h0l.1.25h0l.07.19h0l.09.25h0l.07.18h0l.07.18h0l0,.06h0l.06.17v0l0,.05h0l0,.1v0l0,.05v0l0,.09v0l0,0v0l0,0v0l0,.07v0l0,.05v0l0,0,0,.06,0,0,0,0v0l0,.05,0,0,0,0v0l0,0v0l0,.07v0l0,.05v0l0,.07v0l0,.06v0l0,.06h0l0,.08v0l0,.06v0l0,.08h0l0,.07v0l0,.07h0l0,.08h0l0,.07h0l0,.09h0l0,.08h0l.07.17h0q1,2.52,2.12,5l1.83-.81c-1.6-3.6-3.09-7.3-4.44-11Zm9.63,21.67-1.77.93c.51,1,1,1.93,1.56,2.89h0l.22.41h0l.09.16h0l.09.16h0l0,.08h0l.09.16h0l.08.15h0l0,.07h0l.05.08h0l0,.08h0l.08.15h0l.09.16h0l0,.08h0l.09.16h0l.09.16h0l.14.24h0q1.5,2.59,3.07,5.15l1.7-1.06c-2.07-3.35-4.06-6.81-5.9-10.28Zm12.5,20.14L139,383.23q3.14,4.35,6.53,8.51h0l.12.15h0l.12.15h0l0,0h0l.12.15h0l.11.14h0l0,.05h0l.07.09h0l0,0v0l.07.09h0l0,0,1.54-1.28c-2.52-3-5-6.19-7.26-9.38Zm15.14,18.25-1.45,1.38c.77.81,1.56,1.62,2.35,2.42h0l.12.13h0l.13.12h0l0,.06h0l.06.07h0l.05.05h0l.06.06h0l.05.05,0,0,.05,0h0l.06.05,0,0,0,0,0,0,0,.06,0,0,0,0,0,0,0,0,0,0,0,0,0,0,0,0,.05.06,0,0,0,0,0,0,.12.12v0l0,0h0l.08.08h0l0,0h0l.13.13h0c1.48,1.45,3,2.89,4.52,4.29l1.35-1.47c-2.9-2.66-5.75-5.46-8.46-8.31Zm17.47,16L172,417.89c.78.63,1.57,1.24,2.36,1.85h0l.15.11h0l.15.11h0a1.84,1.84,0,0,0,.22.17h0l.15.11h0l.07.05h0l.08.05h0l.07,0h0l.14.11h0l.14.1h0l.06,0h0l.07.06h0l.06.05h0l.07.05h0l.06,0h0l.14.11h0l.06,0h0l.07.05h0l.06,0,0,0,.07,0h0l.06.05h0l.06.05h0l.06.05h0l.06,0h0l.07.05v0l.06,0h0l.07.05h0l.06.05h0l.06,0h0l.07.05h0l0,0,0,0,.07.05h0l.06.05h0l.14.1h0l.06.05h0l.07.05h0l0,0h0l.06.05h0l.06.05h0l.14.1h0l.06,0h0l.07.05h0l.06,0h0l.07.05h0l.06,0h0l.14.1v0l.07,0h0l.07.05h0l.07.05h0l.07.05h0l.07.05h0l.14.1h0l.07,0h0l.07.05h0l.06,0h0l.14.1h0l.15.1h0l.07,0h0l.07.05h0l.07.05h0l.15.1h0l.14.1h0l.07,0h0l.08.05h0l.07,0h0l.14.1h0l.14.1h0l.07.05h0l.07,0h0l.07,0h0l.07.05h0l.07.05h0l.07.05h0l.08.05h0l.06,0h0l.07,0h0l.06.05h0l.14.09h0l1.14-1.65c-3.24-2.24-6.44-4.62-9.52-7.08Zm19.49,13.5-1,1.72c1,.6,2,1.2,3.07,1.79h0l.17.09h0l.08,0h0l.15.09h0l.07,0h0l.08,0h0l.07,0h0l.07,0h0l.06,0h0l.07,0h0l.06,0,0,0,0,0h0l.07,0,0,0,0,0,0,0,.06,0h0l0,0h0l0,0,.05,0,0,0,0,0,0,0,0,0h0l.08,0,0,0,0,0h0l.08.05h0l0,0h0l.15.08h0l.16.09h0l0,0h0l.11.06h0l.05,0h0l.17.09h0l.17.1h0q2.24,1.21,4.51,2.37l.9-1.79c-3.51-1.77-7-3.7-10.39-5.71Zm21.16,10.7-.78,1.84h0l.08,0h0l.07,0h0l.07,0h0l.07,0h0l0,0h0l.08,0h0l.06,0h0l.06,0h0l.07,0h0l0,0h0l.07,0h0l.06,0h0l.07,0h0l.07,0h0l.05,0,0,0,.07,0,0,0,.05,0h0l0,0,0,0,.05,0h0l0,0h0l.07,0h0l0,0,0,0,.05,0,.05,0h0l0,0,0,0h0l.06,0h0l0,0h0l0,0,.08,0h0l0,0h0l.15.06h0l0,0h0l.08,0h0l0,0h0l.16.07h0l0,0h0l.1,0h0l.05,0h0l.16.07h0l.18.07h0l.06,0h0l.18.07h0q3.56,1.39,7.17,2.63l.65-1.89c-3.72-1.27-7.45-2.7-11.07-4.23Zm22.42,7.69-.52,1.93q3.18.86,6.4,1.58h0l.19,0h.08l.17,0h.1l.09,0h.2l.06,0h.08l.05,0h0l.08,0h.11l.08,0h0l.09,0h0l.08,0h0l.09,0h0l.08,0h0c1.2.26,2.39.51,3.59.74l.38-2c-3.86-.76-7.75-1.65-11.55-2.67Zm23.27,4.53-.25,2,1.9.22h0l.27,0h0l.2,0h.08l.18,0h2.75l.18,0h.38l.18,0h0l.27,0h0l.27,0h0c1.24.1,2.49.2,3.74.28h0l.57,0h0l.28,0h.66l.11-2c-3.94-.22-7.91-.57-11.81-1.06Zm35.52.77c-3.91.32-7.9.5-11.84.55l0,2,1.09,0h3.06c2.62-.09,5.24-.25,7.83-.45l-.16-2Zm23.45-3.5c-3.84.85-7.77,1.57-11.66,2.15l.29,2,1.26-.19h.08l.19,0h1.18l.07,0H310l.08,0h.11l.17,0h.1l.18,0h0l.27,0h0c1.24-.21,2.47-.44,3.69-.67h0l1-.19h0l.28-.06h0l.18,0h0l.27-.05h0l.18,0h0l.09,0h0l.18,0h0l.08,0h0l.18,0h0l.18,0h0l.09,0h0l.18,0h0l.08,0h0l.17,0h0l.18,0h0l.09,0h0l.18,0h0l.08,0h0l.17,0h0l.27-.06h0l.09,0-.43-2Zm22.74-6.69c-3.69,1.37-7.48,2.63-11.25,3.74l.56,1.92q3.21-.94,6.36-2h0l.18-.06h0l.08,0h0l.17-.06h0l.08,0h0l.09,0h0l.07,0h0l.08,0h0l.07,0h0l.06,0h0l.08,0h.1l.08,0h0l.06,0h.11l.07,0h0l0,0h.08l.07,0h.08l0,0,.07,0h0l0,0h.1l.09,0h0l.05,0h0l.16-.06h0l.05,0h0l.12-.05h0l.06,0h0l.18-.07h0l.25-.09h0q.94-.33,1.89-.69l-.7-1.87Zm21.61-9.76c-3.47,1.87-7.05,3.63-10.64,5.25l.83,1.82q2.93-1.32,5.81-2.75h0l1.42-.71h0l.41-.21h0l.17-.08h0l.41-.21h0l.17-.09h0l.23-.12h0l.17-.09h0l.23-.12h0l.17-.09h0l.17-.09h0l.06,0h0l.16-.09h0l.17-.08h0l.05,0h0l.17-.09h0l.17-.09h0l.05,0h0l.11-.05h0l.05,0h0l.16-.09h0l.11-.07-.94-1.76Zm20.06-12.63c-3.18,2.32-6.48,4.56-9.81,6.66l1.06,1.69.12-.07h0l.39-.25h0l.16-.1h0l.16-.1h0l.05,0h0l.09-.06h0l.05,0h0l.14-.09,0,0,0,0h0l.08-.06h0l0,0h0l.07-.05,0,0,0,0,0,0,0,0,.05,0,.05,0,0,0,0,0,0,0,.06,0,0,0,0,0,0,0,0,0,.07,0h0l0,0,0,0,.07,0,0,0,0,0h0l.06,0h0l.06,0,0,0,.05,0h0l.07-.05h0l.05,0h0l.07,0h0l.06,0h0l.14-.1h0l.07-.05h0l.07-.05h0l.08,0h0l.16-.11h0q3.28-2.18,6.46-4.49l-1.18-1.62Zm18.16-15.24c-2.84,2.73-5.81,5.4-8.82,7.93l1.29,1.53h0l.06,0,0,0,0,0,0,0,.05,0,0,0,0,0,0,0,0,0h0l.06-.05,0,0,0,0,0,0,.06-.05,0,0,0,0,0,0,.06-.05,0,0,0,0,0,0,0,0,0,0,.06-.05,0,0,0,0,0,0,.05-.05,0,0,0,0,0,0,.05,0,0,0,0,0,0,0,0,0,.05,0,0,0,0,0,0,0,0,0,.05-.05,0,0,0,0,0,0,0,0,.05,0,0,0,0,0,0,0,.05,0,0,0,0,0,0,0,0,0,.06-.05,0,0,0,0,0,0,0,0,.07-.05,0,0,0,0,0,0,.07-.06v0l0,0,0,0,.13-.11h0l0,0h0l.08-.07h0l0,0h0l.08-.08h0l0,0h0l.14-.12h0l.13-.13h0l0,0h0l.14-.12h0l.14-.12h0l.14-.13h0l.69-.61h0l1-.88h0l.48-.44h0l.14-.13h0l.14-.13h0l.19-.17h0l.14-.13h0l.05,0h0l.09-.08h0l0,0h0l.08-.07h0l0,0h0l.12-.12,0,0,0,0,0,0,0-.05,0,0,0,0,0,0,0,0,0,0,0,0,0,0,0,0,.06-.05,0,0,0,0,0,0,.06-.06h0l.05-.05h0l.05-.06h0l.06-.06h0l.05-.05h0l.07-.06h0l.07-.06s0,0,0,0l.13-.12h0l.82-.78-1.39-1.44ZM417,388.12c-2.44,3.1-5,6.14-7.66,9.06l1.48,1.34h0l.05-.06h0l.06-.07h0l.05-.05v0l.05-.06,0,0,0,0,0,0,.05-.06h0l0-.05,0,0,0,0,0,0,0,0,0,0,0-.05,0,0,.05-.05,0,0,0,0,0,0,.05-.05,0,0,0,0,0,0,0,0,0,0,0,0,0,0,0,0,0,0,0,0,0,0,0,0,0,0,0,0,0-.06,0,0,0,0v0l.07-.07h0l0,0v0l.12-.13v0l.12-.13h0l0,0h0l.12-.14h0q3-3.43,5.85-7L417,388.12Zm13.37-19.57c-2,3.39-4.13,6.76-6.35,10l1.65,1.12q2.47-3.63,4.78-7.39h0l.09-.16h0l0-.07h0l0-.08h0l0-.06v0l.05-.07h0l0-.07v0l0-.06h0l0-.07v0l0,0,0,0,0-.06v0l0,0,0,0,0,0,0-.07v0l0-.05v0l.09-.15h0l.84-1.41-1.73-1Zm10.57-21.22c-1.51,3.64-3.16,7.27-4.92,10.79l1.79.89c.15-.29.29-.57.43-.87h0l.09-.17h0l.08-.17h0l0,0h0l.08-.17h0l.08-.16v0l0-.05h0l0-.09v0l0,0v0l0,0v0l0-.07,0,0,0,0v0l0-.08v0l0,0,0,0,0-.07,0,0,0,0v0l0,0,0,0,0-.07v0l0,0,0,0,0-.06,0,0,0,0v0l0,0,0-.05,0-.05,0,0v0l0,0,0-.07,0,0,0,0v0l0,0,0-.06,0,0v0l0,0,0,0,0-.06,0,0v0l0,0,0,0,0-.06,0,0v0l0,0,0,0,0-.07v0l0,0,0,0,0-.07v0l0-.05,0,0,0-.05v0l0-.08v0l0,0v0l0-.08v0l0,0v0l0,0v0l0-.09v0l0-.05v0l0-.09v0l0-.05v0l.07-.16h0l0-.05v0l0-.1h0l0,0v0l.07-.16v0l0,0h0l0-.11v0l0,0h0l.05-.11h0l0-.06h0l.08-.17h0l0-.05h0l.08-.17v0l.08-.16v0l0-.05h0l.05-.11h0l0-.06h0l.08-.17h0l.08-.18h0l0-.06h0l.07-.17h0l.07-.17h0l0-.06h0l.08-.17v0l.07-.16v0l0-.05h0l.05-.11h0l0-.05v0l.07-.16v0l0-.05h0l0-.1v0l0-.05v0l0-.09v0l0,0v0l0-.05v0l0-.08v0l0,0v0l0-.08v0l0,0v0l0,0,0-.07v0l0-.05v0l0,0,0,0,0-.06,0,0,0,0v0l0-.08v0l0-.05v0l0-.07h0l0-.07v0l0-.07h0l0-.08h0l0-.08h0l.07-.16h0l0-.08-1.85-.77Zm7.55-22.47c-1,3.81-2.13,7.64-3.38,11.37l1.89.63c.05-.16.11-.31.16-.47v0l.06-.16v-.11l0-.07V336l0,0v0l0-.07v0l0-.06v0l0-.07h0l0-.08v0l0-.07h0l.06-.17h0c.86-2.63,1.65-5.3,2.39-8h0l0-.08h0L450,327h0l.05-.17v-.11l0-.08h0l0-.07v-.11l0-.07v-.15l0-.09v-.08h0l.05-.18h0c0-.17.09-.33.13-.49l-1.94-.51Zm4.39-23.3c-.46,3.92-1.06,7.86-1.79,11.73l2,.37v-.38l0-.07V313l0-.08h0v-.08h0v-.08h0l0-.09h0l0-.09h0q.47-2.62.87-5.26h0v-.09h0l0-.17v-.1h0l0-.09v-.18h0v-.48l0-.07v-.54h0v-.06h0a2.19,2.19,0,0,0,0-.27h0c.16-1.14.3-2.27.44-3.41l-2-.24Zm3.17-23.72-2,0c0,1.06,0,2.13,0,3.2,0,2.88-.07,5.8-.21,8.66l2,.1c.08-1.63.14-3.27.18-4.91h0v-.07h0v-.07h0v-.14h0v-.06h0v-.06h0v-.06h0v-.06h0v-.06h0v-.07h0c0-.32,0-.63,0-.95h0v-.06h0v-2.13h0v-.21h0v-.06h0v-.13h0v-.06h0v-.07h0v-.06h0c0-.87,0-1.73,0-2.6ZM454,254l-2,.31c.61,3.88,1.09,7.84,1.42,11.77l2-.17q-.26-2.91-.6-5.8h0l0-.19h0v-.1l0-.17h0v-.1l0-.17v-.19h0V257.9h0l0-.11v-.09l0-.19h0v-.08l0-.18h0v-.07h0l0-.2h0c-.14-1-.29-2-.44-3Zm-5.31-23.39-1.92.58c1.14,3.77,2.16,7.63,3,11.47l1.95-.44c-.14-.61-.28-1.2-.42-1.8h0l0-.07h0l0-.12h0V240h0l0-.1v-.12l0,0v-.18l0-.07v0l0-.07v0l0-.06v0l0-.08v-.1l0-.17v0l0-.07h0l0-.18h0l0-.18h0c-.31-1.28-.65-2.55-1-3.81h0l-.05-.18h0l0-.08h0l-.05-.18h0l0-.08h0l0-.08h0l0-.07v0l-.05-.16v-.11l0-.08v-.11l0,0v0l0-.06v-.12l0-.06V233l0-.09v0l0,0v0l0-.06h0l0-.11h0v-.06h0c-.19-.67-.39-1.34-.59-2Zm-8.48-22.43-1.82.84c1.64,3.58,3.18,7.26,4.58,10.94l1.87-.71c-.07-.17-.14-.35-.2-.52h0l-.07-.17h0l-.07-.16h0l0-.08h0l0-.08s0,0,0,0l0-.08v0l-.07-.16h0l0-.07v0l0-.08h0l0-.07v0l-.07-.15v0l0-.07h0l0-.08v0l0-.06v0l0-.08h0l0-.08v0l0-.07h0l0-.08v0l0-.06v0l0-.08h0l0-.08v0l0-.06v0l0-.07v0l0,0v0l0-.07h0l0-.07v0l0-.07h0l0-.08v0l0-.06v0l0-.08h0l0-.07v0l0-.07h0l0-.07v0l0-.06h0l0-.08v0l0-.06v0l-.06-.16v0l0-.06v0l0-.08h0l0-.07h0l-.06-.16v0l0-.07h0l0-.08h0l0-.07v0l-.07-.16h0l0-.08h0l0-.09h0l0-.08h0l-.07-.16h0l-.06-.17h0l0-.07h0l-.07-.17h0l-.18-.43h0q-1-2.34-2-4.63h0l-.08-.17Zm-11.48-21L427,188.15c2.12,3.33,4.15,6.76,6,10.22l1.76-1-.09-.17h0l0-.08h0l-.08-.16h0l0-.07h0l0-.07v0l0-.06v0l0-.07,0,0,0-.05,0,0,0,0,0,0,0,0,0,0,0,0,0,0,0,0,0,0,0,0,0,0v0l-.05-.08v0l0,0v0l-.06-.09h0l0-.05v0l-.09-.16h0c-1.32-2.34-2.68-4.65-4.1-6.92h0l-.1-.17h0l-.14-.22h0l-.1-.16h0l-.1-.15h0l0,0h0l-.06-.1h0l0-.05h0l-.06-.1h0l0-.05v0l0,0v0l-.05-.08,0,0,0,0v0l-.05-.08v0l0,0,0,0-.06-.1Zm-14.25-19.29-1.53,1.3c2.55,3,5,6.12,7.37,9.29l1.61-1.19c-1.17-1.58-2.37-3.15-3.59-4.69h0l-.12-.15h0l0-.07h0l-.11-.14h0l-.12-.14h0l-.11-.14h0l-.05-.06h0l-.05-.07h0l-.05-.06v0l-.1-.13,0,0,0-.05h0l-.05-.07,0,0,0,0,0,0-.05-.07h0l0,0,0,0,0,0,0,0,0-.06,0,0,0,0v0l-.05,0,0,0,0,0,0,0,0,0,0,0,0,0,0,0,0,0,0-.05,0,0,0,0,0,0,0-.06,0,0,0,0,0,0,0,0,0,0-.06-.07v0l0,0h0l-.07-.08v0l0,0h0l-.11-.14h0l-.11-.14h0l0-.05h0l-.12-.15h0l-.12-.15h0l-1.23-1.47Zm-16.75-17.17-1.33,1.49c2.93,2.63,5.82,5.39,8.57,8.21l1.43-1.4-.4-.4h0l-.12-.13h0l-.13-.13h0l-.05-.05h0l-.06-.06h0l0-.05v0l-.06,0v0l0,0,0,0,0,0,0,0,0-.05,0,0,0,0,0,0-.06-.05,0,0,0,0,0,0,0,0,0,0,0,0,0,0,0,0,0,0,0,0,0,0,0,0-.11-.12,0,0,0,0h0l-.08-.08h0l-.05,0h0l-.13-.13h0l-.14-.13h0c-.73-.73-1.46-1.44-2.21-2.15h0l-.14-.13h0l-.14-.13h0l-.05-.05h0l-.09-.09h0l0,0h0l-.13-.12v0l0,0h0l-.08-.07,0,0,0,0,0,0-.06-.06,0,0,0,0,0,0,0,0,0-.05,0,0,0,0,0,0-.05-.05,0,0,0,0,0,0-.05,0,0,0-.05-.05,0,0-.05,0h0l-.06-.06h0l-.05-.05h0l-.13-.12h0l-.13-.12h0c-.78-.72-1.57-1.43-2.36-2.14ZM378.8,135.88l-1.12,1.66c3.27,2.2,6.5,4.55,9.61,7l1.22-1.58q-2.33-1.81-4.71-3.55h0l-.14-.11h0l-.07-.05h0l-.07-.06h0l-.07,0h0l-.07,0h0l-.07-.05h0l-.07-.05h0l-.07-.05h0l-.05,0h0l-.06-.05h0l-.05,0h0l-.07-.05,0,0,0,0,0,0,0,0-.05,0,0,0,0,0,0,0-.13-.09,0,0,0,0h0l-.09-.06h0l-.05,0h0l-.15-.11h0q-1.59-1.12-3.21-2.22Zm-20.75-12-.88,1.8c3.53,1.73,7.05,3.61,10.46,5.58l1-1.73-1.42-.81h0l-.16-.09h0l-.06,0h0l-.1-.06h0l0,0,0,0-.14-.08h0l0,0,0,0-.06,0,0,0,0,0,0,0,0,0-.06,0,0,0,0,0,0,0-.06,0h0l0,0h0l-.05,0,0,0-.06,0,0,0-.05,0,0,0-.06,0,0,0-.05,0h0l-.07,0h0l-.06,0h0l-.06,0h0l-.07,0h0l-.06,0h0l-.07,0h0l-.06,0h0l-.14-.09h0l-.07,0h0l-.07,0h0l-.06,0h0l-.07,0h0l-.07,0h0l-.07,0h0l-.07,0h0l-.06,0h0l-.07,0h0l-.06,0h0l-.08,0h0l-.07,0h0l-.06,0h0l-.07,0h0l0,0h0l-.07,0h0l-.05,0,0,0,0,0,0,0-.06,0,0,0,0,0,0,0-.07,0,0,0,0,0,0,0-.05,0,0,0,0,0,0,0,0,0h0l-.06,0,0,0,0,0h0l0,0,0,0h0l0,0h0l-.07,0h0l0,0h0l-.15-.08h0l-.06,0h0l-.11-.06h0l-.05,0h0l-.17-.09h0c-1.21-.63-2.42-1.24-3.64-1.84Zm-22.21-9.05-.63,1.9c3.74,1.23,7.49,2.61,11.13,4.09l.76-1.85-1.85-.74h0l-.18-.07h0l-.16-.06h0l-.05,0h0l-.07,0h0l0,0h0l0,0-.07,0,0,0h-.05l0,0-.05,0h0l-.06,0,0,0,0,0h0l-.08,0h0l-.06,0h0l-.08,0h0l-.08,0h0l-.08,0h0l-.08,0h0l-.08,0h0l-.17-.06s0,0,0,0l-.26-.09h0l-.17-.07h0c-1.11-.42-2.22-.83-3.34-1.22h0l-.17-.06h0l-.25-.09h0l-.17-.06h0l-.08,0h0l-.08,0h0l-.07,0h0l-.08,0h0l-.08,0h0l-.07,0h0l-.08,0h0l-.06,0h0l-.08,0h0l-.06,0h0l-.05,0h0l-.07,0h0l-.05,0h0l-.06,0h-.05l0,0h-.08l-.05,0-.05,0h0l0,0h-.07l-.08,0h-.1l-.17-.06h0l-.25-.09h0l-.86-.28Zm-23.24-5.91-.36,2c3.88.7,7.77,1.55,11.59,2.52l.49-1.94-3.12-.76h0l-.18,0h-.09l-.11,0h-.17l-.07,0h-.17l-.07,0h-.65l-.08,0h0l-.06,0h0l-.07,0h0l-.08,0h0l-.06,0h0l-.08,0h0l-.07,0h0l-.07,0h0l-.08,0h0l-.07,0h0l-.16,0h0l-.07,0h0l-.08,0h0l-.08,0h0l-.09,0h0l-.09,0h0l-.07,0h0l-.17,0h0l-.08,0h0l-.09,0h0l-.08,0h0l-.17,0h0l-.08,0h0l-.17,0H317l-.09,0h0l-.09,0h0l-.18,0h0l-.09,0h0l-.18,0h0l-.27,0h0l-.18,0h0l-.27-.06h0l-.28,0h0l-2.77-.53Zm-23.83-2.66-.09,2c3.94.17,7.92.48,11.83.92l.22-2c-1.25-.14-2.5-.27-3.76-.38h0l-.21,0h-.07l-.2,0h-.36l-.19,0h-3.6l-.18,0h-.29l-.28,0h0c-.94-.06-1.88-.1-2.82-.14Z"/><text class="cls-3" transform="translate(121.5 292.36)">M<tspan class="cls-4" x="33" y="0">ichael</tspan><tspan class="cls-5" x="133.4" y="0"> </tspan><tspan class="cls-6" x="140.8" y="0">W</tspan><tspan class="cls-7" x="172.8" y="0">. A. </tspan><tspan class="cls-8" x="232.6" y="0">L</tspan><tspan class="cls-4" x="251.23" y="0">und</tspan></text></g></g></svg>